HIERARCHY
ROOT RootJoint
{
    OFFSET   0.000000   0.000000   0.000000
    CHANNELS 6 Xposition Yposition Zposition Xrotation Yrotation Zrotation
    JOINT pelvis_lowerback
    {
        OFFSET   0.000000   0.093605   0.000000
        CHANNELS 3 Xrotation Yrotation Zrotation
        JOINT lowerback_torso
        {
            OFFSET   0.000000   0.100000   0.000000
            CHANNELS 3 Xrotation Yrotation Zrotation
            JOINT torso_head
            {
                OFFSET   0.000000   0.282350   0.000000
                CHANNELS 3 Xrotation Yrotation Zrotation
                End Site
                {
                    OFFSET   0.000000   0.192650   0.000000
                }
            }
            JOINT rTorso_Clavicle
            {
                OFFSET  -0.001000   0.157500   0.000000
                CHANNELS 3 Xrotation Yrotation Zrotation
                JOINT rShoulder
                {
                    OFFSET  -0.117647   0.000000   0.000000
                    CHANNELS 3 Xrotation Yrotation Zrotation
                    JOINT rElbow
                    {
                        OFFSET  -0.245000   0.000000   0.000000
                        CHANNELS 3 Xrotation Yrotation Zrotation
                        JOINT rWrist
                        {
                            OFFSET  -0.240000   0.000000   0.000000
                            CHANNELS 3 Xrotation Yrotation Zrotation
                            End Site
                            {
                                OFFSET  -0.116353  -0.002500   0.000000
                            }
                        }
                    }
                }
            }
            JOINT lTorso_Clavicle
            {
                OFFSET   0.001000   0.157500   0.000000
                CHANNELS 3 Xrotation Yrotation Zrotation
                JOINT lShoulder
                {
                    OFFSET   0.117647   0.000000   0.000000
                    CHANNELS 3 Xrotation Yrotation Zrotation
                    JOINT lElbow
                    {
                        OFFSET   0.245000   0.000000   0.000000
                        CHANNELS 3 Xrotation Yrotation Zrotation
                        JOINT lWrist
                        {
                            OFFSET   0.240000   0.000000   0.000000
                            CHANNELS 3 Xrotation Yrotation Zrotation
                            End Site
                            {
                                OFFSET   0.116353  -0.002500   0.000000
                            }
                        }
                    }
                }
            }
        }
    }
    JOINT rHip
    {
        OFFSET  -0.100000  -0.051395   0.000000
        CHANNELS 3 Xrotation Yrotation Zrotation
        JOINT rKnee
        {
            OFFSET   0.000000  -0.410000   0.000000
            CHANNELS 3 Xrotation Yrotation Zrotation
            JOINT rAnkle
            {
                OFFSET   0.000000  -0.390000   0.000000
                CHANNELS 3 Xrotation Yrotation Zrotation
                JOINT rToeJoint
                {
                    OFFSET   0.000000  -0.050000   0.130000
                    CHANNELS 3 Xrotation Yrotation Zrotation
                    End Site
                    {
                        OFFSET  -0.010000   0.002000   0.060000
                    }
                }
            }
        }
    }
    JOINT lHip
    {
        OFFSET   0.100000  -0.051395   0.000000
        CHANNELS 3 Xrotation Yrotation Zrotation
        JOINT lKnee
        {
            OFFSET   0.000000  -0.410000   0.000000
            CHANNELS 3 Xrotation Yrotation Zrotation
            JOINT lAnkle
            {
                OFFSET   0.000000  -0.390000   0.000000
                CHANNELS 3 Xrotation Yrotation Zrotation
                JOINT lToeJoint
                {
                    OFFSET   0.000000  -0.050000   0.130000
                    CHANNELS 3 Xrotation Yrotation Zrotation
                    End Site
                    {
                        OFFSET   0.010000   0.002000   0.060000
                    }
                }
            }
        }
    }
}
MOTION
Frames: 15
Frame Time:   0.008333
 -2.376719   0.925631   3.975860   0.000000   0.000000   0.000000   0.000000   0.000000   0.000000   0.000000   0.000000   0.000000   0.000000   0.000000   0.000000   0.000000   0.000000   0.000000   0.000000   0.000000   0.000000   0.000000   0.000000   0.000000   0.000000   0.000000   0.000000   0.000000   0.000000   0.000000   0.000000   0.000000   0.000000   0.000000   0.000000   0.000000   0.000000   0.000000   0.000000   0.000000   0.000000   0.000000   0.000000   0.000000   0.000000   0.000000   0.000000   0.000000   0.000000   0.000000   0.000000   0.000000   0.000000   0.000000   0.000000   0.000000   0.000000   0.000000   0.000000   0.000000   0.000000   0.000000   0.000000
 -2.376208   0.924236   3.975544  -0.633125  -0.073557   0.284274   0.911378   0.133539  -0.222525   0.017612  -0.075886  -0.074922   0.121105   0.024328  -0.051399  -0.499550  -0.523410  -0.509987  -1.479286  -0.247692   0.120671  -0.011776   3.009030   0.044522   0.023867  -0.926896   0.263394  -0.453464   0.616513   0.657950  -0.918504   0.237571  -0.265914  -0.011715  -3.252782  -0.030898   0.040472   0.886735  -0.329810   0.046682   0.235229  -0.601936   1.906424   0.005341   0.002578  -1.718545  -0.293030  -0.198800   0.063413   0.000284  -0.000071   0.063666  -0.315909  -0.173722   2.089174  -0.002181  -0.007046  -1.993389   0.127478   0.464301  -0.153681   0.000763   0.000351
 -2.375921   0.924105   3.975415  -1.451621  -0.362903   0.341881   1.859215   0.347636  -0.276686   0.181549  -0.079518  -0.074910   0.316829   0.049449  -0.101810  -0.983057  -0.973003  -1.037303  -2.868937  -0.402259   0.168635  -0.026738   5.919789   0.076329  -0.006067  -1.000011   0.413307  -0.890492   1.211713   1.319552  -1.778312   0.418277  -0.456716  -0.026642  -6.388013  -0.052786   0.045589   0.887583  -0.569956  -0.038780   0.321513  -0.707081   3.833004   0.004997  -0.001657  -3.047453  -0.683305  -0.177094   0.173628   0.000252  -0.000636   0.350099  -0.612859   0.031627   4.350156  -0.007992  -0.016722  -3.844792   0.236611   0.906081  -0.313675   0.001593   0.000950
 -2.375302   0.924044   3.975597  -2.292177  -0.616763   0.579628   2.723481   0.515294  -0.463550   0.360433  -0.095304  -0.132354   0.517223   0.071032  -0.152097  -1.435709  -1.360222  -1.642224  -4.162587  -0.519188   0.149072  -0.044487   8.654403   0.098927  -0.037122  -0.841392   0.514534  -1.302854   1.730915   2.070749  -2.577182   0.559648  -0.556744  -0.044494  -9.331767  -0.069160   0.049011   0.657504  -0.739781  -0.094393   0.416885  -1.017826   5.802681   0.004934  -0.004427  -4.402177  -0.996705  -0.252902   0.232372   0.000273  -0.000756   0.706322  -0.893211   0.128015   6.540827  -0.014590  -0.022434  -5.569286   0.324124   1.319983  -0.454003   0.002204   0.001305
 -2.374410   0.923909   3.976028  -3.101240  -0.828600   0.908959   3.496460   0.648629  -0.682164   0.509858  -0.128500  -0.226841   0.701656   0.090346  -0.205386  -1.862164  -1.701551  -2.305833  -5.369889  -0.611788   0.060758  -0.061979  11.213394   0.114531  -0.065837  -0.619425   0.505664  -1.693752   2.180155   2.858598  -3.322152   0.668270  -0.589261  -0.062405 -12.088925  -0.081368   0.052787   0.355666  -0.804891  -0.122593   0.499016  -1.444542   7.692966   0.005085  -0.006136  -5.692466  -1.277914  -0.346512   0.283760   0.000298  -0.000795   1.075467  -1.145516   0.222720   8.608132  -0.021434  -0.024386  -7.179225   0.394550   1.706874  -0.586734   0.002727   0.001490
 -2.373281   0.923669   3.976653  -3.868060  -1.009453   1.292503   4.189415   0.757104  -0.904214   0.626625  -0.174107  -0.337359   0.867587   0.108070  -0.257169  -2.265368  -2.005618  -3.003971  -6.498380  -0.684757  -0.079155  -0.077184  13.605566   0.124481  -0.091547  -0.377435   0.388748  -2.064583   2.571633   3.654214  -4.018034   0.751637  -0.576399  -0.078591 -14.668769  -0.089980   0.057287   0.024802  -0.782136  -0.131874   0.567007  -1.945938   9.487201   0.005353  -0.007212  -6.907579  -1.532566  -0.449104   0.331188   0.000322  -0.000795   1.440797  -1.371696   0.356578  10.544787  -0.028002  -0.023666  -8.682522   0.451173   2.068789  -0.710847   0.003165   0.001551
 -2.371933   0.923325   3.977433  -4.592667  -1.168138   1.713491   4.814374   0.846489  -1.119478   0.716546  -0.227762  -0.453299   1.016940   0.124452  -0.305616  -2.647087  -2.278659  -3.715173  -7.554016  -0.741381  -0.253520  -0.089079  15.840884   0.129852  -0.114053  -0.129021   0.186119  -2.416119   2.916220   4.439660  -4.668502   0.816117  -0.533645  -0.092139 -17.081114  -0.095479   0.062833  -0.317745  -0.694358  -0.127151   0.622954  -2.503580  11.187353   0.005687  -0.007913  -8.046915  -1.763482  -0.557150   0.374915   0.000343  -0.000771   1.796161  -1.575461   0.541348  12.354648  -0.033902  -0.021207 -10.086167   0.496178   2.407374  -0.825757   0.003512   0.001528
 -2.370551   0.922513   3.977985  -5.021730  -1.334711   1.981716   5.233618   0.872223  -1.163853   0.668573  -0.251502  -0.493798   1.134775   0.102030  -0.398254  -2.861430  -2.636580  -4.370755  -8.388737  -0.825198  -0.204450  -0.093866  18.360652   0.130112  -0.108728   0.085202  -0.494998  -2.617143   3.439409   5.071815  -5.218358   0.935644  -0.750928  -0.099934 -19.868188  -0.098594   0.047779  -0.526641  -0.135663  -0.563015   0.793050  -2.942098  13.124262   0.007055  -0.007549  -9.318260  -2.050842  -0.754580   0.302850   0.000050  -0.000411   1.994911  -1.738616   0.952452  13.585336  -0.035595  -0.017782 -11.004178   0.439133   2.520922  -0.740004   0.002195   0.000958
 -2.369138   0.921294   3.978484  -5.409631  -1.472490   2.210992   5.633731   0.873787  -1.170486   0.610005  -0.284365  -0.497699   1.239367   0.077616  -0.477678  -3.058754  -2.985207  -4.886407  -9.161355  -0.915771  -0.088434  -0.091831  20.720830   0.126873  -0.095250   0.391463  -1.089885  -2.803022   3.942759   5.559133  -5.723774   1.057432  -1.030610  -0.101098 -22.481404  -0.098466   0.034431  -0.844475   0.330471  -1.021845   0.920461  -3.317221  15.001637   0.007622  -0.007588 -10.479973  -2.335079  -0.910747   0.219145  -0.000176  -0.000077   2.187818  -1.896188   1.436731  14.657151  -0.036043  -0.014371 -11.860694   0.383362   2.625678  -0.635743   0.000984   0.000489
 -2.367647   0.919833   3.978974  -5.784386  -1.589188   2.415503   6.021583   0.864427  -1.145599   0.563873  -0.324957  -0.479531   1.337752   0.054247  -0.548587  -3.241739  -3.319452  -5.285299  -9.877706  -1.015837   0.075102  -0.085561  22.919966   0.121233  -0.081010   0.683469  -1.571895  -2.974668   4.413339   5.932225  -6.189064   1.178844  -1.348247  -0.098201 -24.920090  -0.096017   0.021580  -1.164395   0.683939  -1.473740   1.027515  -3.638605  16.825884   0.007537  -0.007597 -11.531047  -2.600610  -1.053379   0.144667  -0.000308   0.000151   2.383692  -2.045111   1.957728  15.642845  -0.035780  -0.011213 -12.660285   0.330370   2.722925  -0.536920   0.000052   0.000166
 -2.366025   0.918190   3.979483  -6.148389  -1.671859   2.609917   6.392754   0.840752  -1.096458   0.529690  -0.376607  -0.445574   1.431329   0.032018  -0.613075  -3.410870  -3.641263  -5.595170 -10.541349  -1.125110   0.269904  -0.077069  24.967637   0.114173  -0.067041   0.939434  -1.954808  -3.131908   4.850124   6.219518  -6.616848   1.297110  -1.687928  -0.093215 -27.195832  -0.092126   0.009185  -1.468649   0.940777  -1.902062   1.137026  -3.952207  18.583018   0.007572  -0.007117 -12.496284  -2.838960  -1.200880   0.078589  -0.000402   0.000275   2.575297  -2.185846   2.486171  16.559830  -0.034918  -0.008270 -13.406389   0.279700   2.812998  -0.444587  -0.000637  -0.000036
 -2.364264   0.916401   3.980027  -6.501312  -1.728611   2.797211   6.745202   0.808575  -1.027666   0.504099  -0.435509  -0.397356   1.519969   0.011097  -0.671761  -3.566960  -3.950114  -5.836232 -11.156069  -1.241259   0.483808  -0.067694  26.874307   0.106388  -0.053888   1.159028  -2.258544  -3.275828   5.255800   6.443629  -7.010325   1.411780  -2.036212  -0.087387 -29.319464  -0.087423  -0.002767  -1.755603   1.124158  -2.304691   1.242838  -4.264654  20.269686   0.007710  -0.006496 -13.386784  -3.057355  -1.343754   0.019093  -0.000465   0.000338   2.761140  -2.316960   3.010660  17.413859  -0.033586  -0.005644 -14.102639   0.231300   2.896391  -0.359102  -0.001123  -0.000151
 -2.362360   0.914493   3.980615  -6.843021  -1.765658   2.978185   7.078100   0.771345  -0.941698   0.484469  -0.498448  -0.336007   1.603560  -0.008526  -0.725260  -3.710939  -4.245317  -6.024100 -11.725572  -1.361816   0.707712  -0.058276  28.649985   0.098344  -0.041794   1.346436  -2.500719  -3.407784   5.633233   6.621385  -7.372651   1.522772  -2.383382  -0.081450 -31.301091  -0.082332  -0.014254  -2.025819   1.254379  -2.681085   1.345007  -4.577910  21.885581   0.007916  -0.005869 -14.210549  -3.257708  -1.481568  -0.034739  -0.000504   0.000363   2.940058  -2.438803   3.524059  18.209515  -0.031908  -0.003386 -14.752387   0.185073   2.973624  -0.280255  -0.001447  -0.000208
 -2.360578   0.912913   3.981280  -7.071492  -1.730549   3.076998   7.288890   0.663242  -0.846312   0.457828  -0.508810  -0.196832   1.724867   0.004925  -0.841689  -3.649025  -4.736931  -6.258359 -11.787134  -1.639302   1.415423  -0.036034  31.064489   0.079479  -0.031587   1.338734  -3.151178  -3.317656   6.055078   6.797346  -7.373592   1.697147  -3.254614  -0.061856 -33.575756  -0.066780   0.003649  -2.133755   1.946821  -2.925676   1.508498  -4.756850  23.011996   0.007599  -0.003642 -14.739748  -3.296161  -1.656246  -0.090887  -0.000542   0.000233   3.117423  -2.563709   3.985694  18.614863  -0.027527  -0.002102 -15.182145   0.127940   2.870725  -0.067759  -0.002028  -0.000320
 -2.358864   0.911464   3.981762  -7.241500  -1.684496   3.130967   7.489151   0.554199  -0.750167   0.431803  -0.523872  -0.053413   1.834596   0.020163  -0.950096  -3.564219  -5.209008  -6.328168 -11.810991  -1.914223   2.195127  -0.013153  33.334926   0.061762  -0.003438   1.495301  -3.527876  -3.204840   6.447118   6.812317  -7.342085   1.861664  -4.190478  -0.039605 -35.711179  -0.051721   0.030210  -2.331944   2.391093  -3.158720   1.676590  -4.876225  23.976655   0.007173  -0.001832 -15.256200  -3.324780  -1.823807  -0.131953  -0.000528   0.000134   3.247646  -2.676689   4.350169  18.940882  -0.023216  -0.001292 -15.584651   0.073844   2.773283   0.133516  -0.002200  -0.000374
